/* XPM */
static char * att_2_xpm[] = {
"50 45 754 2",
"  	c None",
". 	c #60644B",
"+ 	c #372A2B",
"@ 	c #534A3A",
"# 	c #5E5854",
"$ 	c #A3B2B4",
"% 	c #E8EFF1",
"& 	c #C7DADA",
"* 	c #6C6C6C",
"= 	c #49473E",
"- 	c #A5AEAE",
"; 	c #FBEBD1",
"> 	c #FBC9A4",
", 	c #FAEFE1",
"' 	c #DFE7E9",
") 	c #5E585A",
"! 	c #727271",
"~ 	c #F6E5C9",
"{ 	c #FD4E27",
"] 	c #FB2412",
"^ 	c #FC553B",
"/ 	c #F9F4EC",
"( 	c #A2A4A4",
"_ 	c #5A5C4E",
": 	c #C7CCCA",
"< 	c #FB8855",
"[ 	c #FD1E0D",
"} 	c #FC1F0E",
"| 	c #FA210D",
"1 	c #FC9F8D",
"2 	c #F2F3F4",
"3 	c #686364",
"4 	c #828181",
"5 	c #FAD2AD",
"6 	c #FA2E12",
"7 	c #FB1D0A",
"8 	c #FD1E0F",
"9 	c #FC1D0E",
"0 	c #FC3822",
"a 	c #FCE6DA",
"b 	c #BCBEC0",
"c 	c #5C514E",
"d 	c #645B59",
"e 	c #DEDAD3",
"f 	c #FC6237",
"g 	c #FD1C0C",
"h 	c #FD1B0A",
"i 	c #FB1908",
"j 	c #FD190B",
"k 	c #FD1F0E",
"l 	c #F8826B",
"m 	c #F6F7F6",
"n 	c #756F71",
"o 	c #574E4B",
"p 	c #929596",
"q 	c #FBBD8C",
"r 	c #FB220F",
"s 	c #FD1A07",
"t 	c #FC2216",
"u 	c #F87262",
"v 	c #FC1D09",
"w 	c #FB200C",
"x 	c #FC2A17",
"y 	c #FBD2C4",
"z 	c #CDD5D6",
"A 	c #5F5554",
"B 	c #685D5E",
"C 	c #EFEEDE",
"D 	c #FB5128",
"E 	c #FD1D0B",
"F 	c #FC1F09",
"G 	c #FC6D6B",
"H 	c #FAF8F0",
"I 	c #FC5541",
"J 	c #FD1F0A",
"K 	c #FD1E0C",
"L 	c #FD614C",
"M 	c #FAF9F7",
"N 	c #81807E",
"O 	c #564F4B",
"P 	c #B8B9B9",
"Q 	c #FBA672",
"R 	c #FB1F0D",
"S 	c #FC1D0B",
"T 	c #FB332A",
"U 	c #FADDDD",
"V 	c #FDFDFD",
"W 	c #FBD0BC",
"X 	c #FB2712",
"Y 	c #FB1C0C",
"Z 	c #FD2210",
"` 	c #FCBAAA",
" .	c #E9EBED",
"..	c #625B59",
"+.	c #767170",
"@.	c #F8E6C7",
"#.	c #F83C1C",
"$.	c #FB1E11",
"%.	c #FE1F10",
"&.	c #FC9F96",
"*.	c #FCFEFE",
"=.	c #FFFFFF",
"-.	c #FEFDFC",
";.	c #FC7E66",
">.	c #FA1D0D",
",.	c #FA1F0C",
"'.	c #F74A33",
").	c #FBF4F0",
"!.	c #989DA0",
"~.	c #483F40",
"{.	c #635A59",
"].	c #D2D3CE",
"^.	c #FD7F48",
"/.	c #FC1F13",
"(.	c #FA2012",
"_.	c #FA5047",
":.	c #FCF4F3",
"<.	c #FDFEFD",
"[.	c #FEFEFE",
"}.	c #FDE1D7",
"|.	c #FC3421",
"1.	c #FC1E0E",
"2.	c #FC2010",
"3.	c #FB9A8C",
"4.	c #F2F6F6",
"5.	c #6C6868",
"6.	c #8A8C8F",
"7.	c #FACFA2",
"8.	c #FB2A12",
"9.	c #FC1F10",
"0.	c #FA271B",
"a.	c #FBC5C2",
"b.	c #FAFDFC",
"c.	c #FCFDFE",
"d.	c #FBFDFC",
"e.	c #FBA490",
"f.	c #FC2112",
"g.	c #FC1C0D",
"h.	c #FC3524",
"i.	c #FCE7DF",
"j.	c #B8BEBF",
"k.	c #584F4E",
"l.	c #68605F",
"m.	c #E7E3D2",
"n.	c #FC5E35",
"o.	c #FA2312",
"p.	c #FB2310",
"q.	c #FB6B63",
"r.	c #F9FBFA",
"s.	c #FDFEFB",
"t.	c #F4EDED",
"u.	c #DFCFC9",
"v.	c #ECE4E5",
"w.	c #FCFCFB",
"x.	c #FBF5F0",
"y.	c #FA503B",
"z.	c #FB1E0F",
"A.	c #FC1F0D",
"B.	c #FA826E",
"C.	c #FAF9F9",
"D.	c #6E7170",
"E.	c #48493E",
"F.	c #A7A9AA",
"G.	c #FBB280",
"H.	c #FD2513",
"I.	c #FC1F0F",
"J.	c #FC2B1E",
"K.	c #FAD7D4",
"L.	c #FCFDFC",
"M.	c #DFDADA",
"N.	c #432F2E",
"O.	c #181214",
"P.	c #2F1D1A",
"Q.	c #BFB6B2",
"R.	c #FCBFAF",
"S.	c #FD2312",
"T.	c #FD2918",
"U.	c #FBD6CA",
"V.	c #CFD3D6",
"W.	c #6A675F",
"X.	c #6B6969",
"Y.	c #F3E4CC",
"Z.	c #F9421B",
"`.	c #FC1E0C",
" +	c #FB2114",
".+	c #FA8780",
"++	c #FCFBFC",
"@+	c #FDFDFC",
"#+	c #857E7A",
"$+	c #0F0C0E",
"%+	c #0A0704",
"&+	c #0D0809",
"*+	c #544C4B",
"=+	c #FAFBF9",
"-+	c #FBFAF8",
";+	c #FC6C5C",
">+	c #FD1F10",
",+	c #FB1E10",
"'+	c #FB674F",
")+	c #FBF8F5",
"!+	c #838685",
"~+	c #686257",
"{+	c #C5C8C6",
"]+	c #F98C5C",
"^+	c #FA200C",
"/+	c #FB1E0D",
"(+	c #FA4136",
"_+	c #FCF0F0",
":+	c #FEFDFD",
"<+	c #4F4C4D",
"[+	c #0D0A0C",
"}+	c #070306",
"|+	c #090508",
"1+	c #2E292A",
"2+	c #F6F3F3",
"3+	c #FBFDFB",
"4+	c #FCDAD0",
"5+	c #FC301A",
"6+	c #FD1D0E",
"7+	c #F92310",
"8+	c #FBBDAA",
"9+	c #E1E9E8",
"0+	c #665C5A",
"a+	c #818180",
"b+	c #F9D4AD",
"c+	c #FC3117",
"d+	c #FB2314",
"e+	c #FAB7B1",
"f+	c #FEFEFD",
"g+	c #424242",
"h+	c #060607",
"i+	c #040406",
"j+	c #070609",
"k+	c #272528",
"l+	c #F1F0F0",
"m+	c #FA927B",
"n+	c #FB2111",
"o+	c #FC1D0F",
"p+	c #F94C38",
"q+	c #FAF4ED",
"r+	c #999BA1",
"s+	c #5E5E53",
"t+	c #DEDED7",
"u+	c #FA6F40",
"v+	c #FC220F",
"w+	c #FA5F54",
"x+	c #FBFAF9",
"y+	c #454547",
"z+	c #07090A",
"A+	c #060707",
"B+	c #070707",
"C+	c #2E2E2C",
"D+	c #F6F6F5",
"E+	c #FDFEFE",
"F+	c #FCF1E6",
"G+	c #FD3E28",
"H+	c #FB1D0E",
"I+	c #FBA497",
"J+	c #EFF2F3",
"K+	c #615D5D",
"L+	c #919598",
"M+	c #FAC197",
"N+	c #F92814",
"O+	c #FA2315",
"P+	c #F72E22",
"Q+	c #FAD6D0",
"R+	c #FDFDFE",
"S+	c #525254",
"T+	c #0A0A0D",
"U+	c #07050A",
"V+	c #09070A",
"W+	c #3A3A3C",
"X+	c #FAFAFA",
"Y+	c #FBFCFC",
"Z+	c #FAAC99",
"`+	c #FA2211",
" @	c #FB2010",
".@	c #FB3E2E",
"+@	c #FAEBE2",
"@@	c #B0B5B8",
"#@	c #4A493C",
"$@	c #6C7166",
"%@	c #EFEBD7",
"&@	c #F94F25",
"*@	c #FA1F11",
"=@	c #F82212",
"-@	c #F9857F",
";@	c #5C5E60",
">@	c #090B0C",
",@	c #060708",
"'@	c #090A0A",
")@	c #4A4E51",
"!@	c #FEFBF5",
"~@	c #FA503A",
"{@	c #F81D0C",
"]@	c #F98B79",
"^@	c #F7F9FA",
"/@	c #6E6A6D",
"(@	c #554C48",
"_@	c #B2B8B6",
":@	c #FAA16F",
"<@	c #FA2511",
"[@	c #FB1F0F",
"}@	c #FA4135",
"|@	c #FCEBE9",
"1@	c #77797A",
"2@	c #0E100F",
"3@	c #0B0D0A",
"4@	c #0C0D0B",
"5@	c #666A6D",
"6@	c #FAC6B8",
"7@	c #FA2411",
"8@	c #FC1F0C",
"9@	c #FA3019",
"0@	c #FADED0",
"a@	c #C1C9CA",
"b@	c #534847",
"c@	c #777374",
"d@	c #FAE5C5",
"e@	c #FC381C",
"f@	c #F92013",
"g@	c #FC2315",
"h@	c #FAACA5",
"i@	c #FCFDFD",
"j@	c #FDFFFF",
"k@	c #909294",
"l@	c #0E1012",
"m@	c #0B0C0D",
"n@	c #0E0F0F",
"o@	c #898B8E",
"p@	c #FDFBF8",
"q@	c #FC6D56",
"r@	c #FB7564",
"s@	c #FAFCFB",
"t@	c #797B7D",
"u@	c #66635D",
"v@	c #CFD1CB",
"w@	c #FC814B",
"x@	c #FA2310",
"y@	c #F65952",
"z@	c #F7F8F7",
"A@	c #FDFDFB",
"B@	c #AFB1B2",
"C@	c #0B0E10",
"D@	c #070A0B",
"E@	c #0D0F0F",
"F@	c #A9AAAD",
"G@	c #FCFCFE",
"H@	c #FADCD0",
"I@	c #FA2D1F",
"J@	c #FC2717",
"K@	c #FBCEC2",
"L@	c #D5DCDD",
"M@	c #594F50",
"N@	c #858988",
"O@	c #FACFA3",
"P@	c #F83010",
"Q@	c #FD1E0E",
"R@	c #F92C17",
"S@	c #FBCCCA",
"T@	c #FFFEFE",
"U@	c #CED0D1",
"V@	c #141717",
"W@	c #111414",
"X@	c #C9CBCC",
"Y@	c #FEFFFE",
"Z@	c #FB9078",
"`@	c #FB2012",
" #	c #FC200F",
".#	c #FB5C46",
"+#	c #FCF9F6",
"@#	c #8B9090",
"##	c #545A47",
"$#	c #69685F",
"%#	c #E5E2D5",
"&#	c #FB6538",
"*#	c #FC1E13",
"=#	c #FD2112",
"-#	c #FB7A75",
";#	c #FDFBFA",
">#	c #FEFEFF",
",#	c #E2E4E5",
"'#	c #1A1B1C",
")#	c #110F10",
"!#	c #1C1D1E",
"~#	c #E2E3E4",
"{#	c #FCEEE4",
"]#	c #FC402B",
"^#	c #FD1D10",
"/#	c #FAB4A1",
"(#	c #E6EAEC",
"_#	c #5F5B5B",
":#	c #544946",
"<#	c #A2A7A6",
"[#	c #FCB385",
"}#	c #FB2915",
"|#	c #FB2513",
"1#	c #FC3228",
"2#	c #F9E3E0",
"3#	c #F5F5F7",
"4#	c #303436",
"5#	c #0E110C",
"6#	c #34393A",
"7#	c #F9F8FA",
"8#	c #FCFDFA",
"9#	c #FAAE9B",
"0#	c #FC2111",
"a#	c #FB210F",
"b#	c #FB4731",
"c#	c #FCF0EB",
"d#	c #A1A5A6",
"e#	c #514847",
"f#	c #6E6968",
"g#	c #F4E4C8",
"h#	c #FA481F",
"i#	c #FB2212",
"j#	c #FB9C94",
"k#	c #FCFEFC",
"l#	c #FCFCFD",
"m#	c #6F7878",
"n#	c #181815",
"o#	c #727C7C",
"p#	c #FBF7F0",
"q#	c #F95943",
"r#	c #FC210D",
"s#	c #FD2410",
"t#	c #FA9A83",
"u#	c #F4F5F5",
"v#	c #6F6F6C",
"w#	c #5A4F4E",
"x#	c #C8CBC9",
"y#	c #FC8C57",
"z#	c #FB2113",
"A#	c #FA4E45",
"B#	c #FBF5F3",
"C#	c #FEFDFE",
"D#	c #DCE5E5",
"E#	c #75878C",
"F#	c #DFE8E8",
"G#	c #FEFCFE",
"H#	c #FEFFFF",
"I#	c #FCCEBB",
"J#	c #FC2C18",
"K#	c #FD2011",
"L#	c #FA3423",
"M#	c #FAE2D8",
"N#	c #BEC4C6",
"O#	c #5E5152",
"P#	c #7F827F",
"Q#	c #FAD5AE",
"R#	c #FA3015",
"S#	c #FE2111",
"T#	c #FB2C1D",
"U#	c #FBC3BC",
"V#	c #FEFCFC",
"W#	c #F8F1ED",
"X#	c #EBD4CA",
"Y#	c #F9F3EF",
"Z#	c #FB7C68",
"`#	c #FC2012",
" $	c #FA7B63",
".$	c #747778",
"+$	c #605555",
"@$	c #E6E6D4",
"#$	c #FC613A",
"$$	c #FB2110",
"%$	c #FA6C62",
"&$	c #E3DFDB",
"*$	c #40332E",
"=$	c #18160F",
"-$	c #463734",
";$	c #EAE4E3",
">$	c #FBE8DE",
",$	c #FB3522",
"'$	c #FD1D0C",
")$	c #FB2B14",
"!$	c #FBCABE",
"~$	c #D7DDDC",
"{$	c #655C5C",
"]$	c #534645",
"^$	c #9FA2A5",
"/$	c #FCB68D",
"($	c #FA2011",
"_$	c #F83427",
":$	c #FCDFDD",
"<$	c #928F90",
"[$	c #121211",
"}$	c #0C0B0A",
"|$	c #171212",
"1$	c #A5A1A2",
"2$	c #FDFEFC",
"3$	c #FA9D87",
"4$	c #FC2110",
"5$	c #FA2111",
"6$	c #FC5A46",
"7$	c #FBF7F3",
"8$	c #898D8C",
"9$	c #6B7268",
"0$	c #F4EBDA",
"a$	c #F94722",
"b$	c #FB2417",
"c$	c #FB958C",
"d$	c #FDFCFD",
"e$	c #ACB2B4",
"f$	c #141518",
"g$	c #0D0E0A",
"h$	c #15181B",
"i$	c #BEC1C2",
"j$	c #FBF4EB",
"k$	c #FA4831",
"l$	c #FD1F0F",
"m$	c #FD2214",
"n$	c #FBB29F",
"o$	c #ECF1F3",
"p$	c #666062",
"q$	c #49443F",
"r$	c #C7C8C5",
"s$	c #FB986A",
"t$	c #FB2211",
"u$	c #FA554B",
"v$	c #FDF2F1",
"w$	c #F5FAFA",
"x$	c #98AAAB",
"y$	c #5B767A",
"z$	c #9FAFAF",
"A$	c #F8FCFC",
"B$	c #FABCA9",
"C$	c #FB2614",
"D$	c #FD2111",
"E$	c #FB422B",
"F$	c #FBF1E7",
"G$	c #A4AAAB",
"H$	c #526147",
"I$	c #848184",
"J$	c #FAD6B7",
"K$	c #FA3116",
"L$	c #FB1E0E",
"M$	c #FB231A",
"N$	c #F7BEBB",
"O$	c #FAFCFC",
"P$	c #FAFDFD",
"Q$	c #FDFCFC",
"R$	c #FCFEFD",
"S$	c #FBFCFD",
"T$	c #FBFAF7",
"U$	c #FB664F",
"V$	c #FC2212",
"W$	c #FB2719",
"X$	c #FA9484",
"Y$	c #F6F9F7",
"Z$	c #6E716A",
"`$	c #5C5654",
" %	c #E0DFDD",
".%	c #FC6F40",
"+%	c #FB1F13",
"@%	c #FA1E0C",
"#%	c #FC2B10",
"$%	c #FB794E",
"%%	c #FE835A",
"&%	c #FE865C",
"*%	c #FE855C",
"=%	c #FC7F52",
"-%	c #FC7E51",
";%	c #FE7E4C",
">%	c #FD7E4C",
",%	c #FD7E4E",
"'%	c #FD8251",
")%	c #FC8152",
"!%	c #FC7C4E",
"~%	c #FE7D53",
"{%	c #FD845A",
"]%	c #FD865D",
"^%	c #FE8861",
"/%	c #FD8861",
"(%	c #FD8963",
"_%	c #FC8A65",
":%	c #FD8C65",
"<%	c #FD885F",
"[%	c #FD8565",
"}%	c #FE8563",
"|%	c #FE8660",
"1%	c #FC845D",
"2%	c #FE895D",
"3%	c #FE885C",
"4%	c #FE8D5C",
"5%	c #FC8B5A",
"6%	c #FC693A",
"7%	c #FB1E0B",
"8%	c #FE190D",
"9%	c #FA311F",
"0%	c #FCE4D9",
"a%	c #BFC8CB",
"b%	c #524947",
"c%	c #837F80",
"d%	c #FAE6CF",
"e%	c #FB2F19",
"f%	c #FC1C0B",
"g%	c #FC1809",
"h%	c #FC1909",
"i%	c #FC1907",
"j%	c #FA1D0A",
"k%	c #FA1B0B",
"l%	c #FC190A",
"m%	c #FE180B",
"n%	c #FC1608",
"o%	c #FD190A",
"p%	c #FD1907",
"q%	c #FD1908",
"r%	c #FD1608",
"s%	c #FD1807",
"t%	c #FB1706",
"u%	c #FD1809",
"v%	c #FC1506",
"w%	c #FC1404",
"x%	c #FB1506",
"y%	c #FA1A09",
"z%	c #FC1606",
"A%	c #FC1707",
"B%	c #FC1807",
"C%	c #FC1806",
"D%	c #FE1809",
"E%	c #FC1908",
"F%	c #FE190B",
"G%	c #FD180B",
"H%	c #FD1A0A",
"I%	c #FB200F",
"J%	c #FA998D",
"K%	c #F8FAFC",
"L%	c #716C6F",
"M%	c #989697",
"N%	c #FBE9DE",
"O%	c #F9463A",
"P%	c #FB2518",
"Q%	c #FC2114",
"R%	c #FB2419",
"S%	c #FB1E12",
"T%	c #FC1D10",
"U%	c #FD2012",
"V%	c #FB1C0D",
"W%	c #FC1F11",
"X%	c #FC1D12",
"Y%	c #FC1E10",
"Z%	c #FC1C13",
"`%	c #FD1D12",
" &	c #FD1B13",
".&	c #FC1F15",
"+&	c #FC1F14",
"@&	c #FB1F15",
"#&	c #FA1C11",
"$&	c #FD1F12",
"%&	c #FC1C0E",
"&&	c #FD190C",
"*&	c #FD1A0E",
"=&	c #FC170D",
"-&	c #FC160C",
";&	c #FD190D",
">&	c #FC1A0E",
",&	c #FD1B11",
"'&	c #FD190F",
")&	c #FD1A0F",
"!&	c #FD1B10",
"~&	c #FD1C11",
"{&	c #FE1D12",
"]&	c #FC1E12",
"^&	c #FC1F12",
"/&	c #FA261B",
"(&	c #F99C98",
"_&	c #878484",
":&	c #EEE8E7",
"<&	c #FAECEC",
"[&	c #FBDBDC",
"}&	c #FBD6D7",
"|&	c #FCD7D8",
"1&	c #FCD4D5",
"2&	c #FED2D3",
"3&	c #FDD0D1",
"4&	c #FCCBCD",
"5&	c #FCCCCD",
"6&	c #FCCACA",
"7&	c #FDC9C9",
"8&	c #FCCBCF",
"9&	c #FCCFD2",
"0&	c #FCD0D1",
"a&	c #FDD3CF",
"b&	c #FBD5D8",
"c&	c #FBD8DB",
"d&	c #FBDADE",
"e&	c #FCD8DD",
"f&	c #FDD4D8",
"g&	c #FED3D4",
"h&	c #FDD1D0",
"i&	c #FCCFCF",
"j&	c #FBCBCB",
"k&	c #FDCACB",
"l&	c #FCC9CA",
"m&	c #FDC6C7",
"n&	c #FDC2C5",
"o&	c #FCC3C7",
"p&	c #FCC3C5",
"q&	c #FBC2C2",
"r&	c #FDC3C3",
"s&	c #FCC7C9",
"t&	c #FDC8CA",
"u&	c #FCCECF",
"v&	c #FBCED0",
"w&	c #FCCDD0",
"x&	c #FACCCE",
"y&	c #FCCBCE",
"z&	c #FBD2D5",
"A&	c #FAF9F8",
"B&	c #F5EDEB",
"C&	c #6A6C6A",
"D&	c #586366",
"E&	c #65676B",
"F&	c #66666C",
"G&	c #5F6065",
"H&	c #5F666B",
"I&	c #637372",
"J&	c #6B7D7A",
"K&	c #6C797B",
"L&	c #787E7F",
"M&	c #7A7877",
"N&	c #797374",
"O&	c #7B736F",
"P&	c #7B6F6C",
"Q&	c #7E6B69",
"R&	c #826E6D",
"S&	c #7D696A",
"T&	c #7A686C",
"U&	c #76696F",
"V&	c #786C72",
"W&	c #776C71",
"X&	c #796E72",
"Y&	c #776F74",
"Z&	c #736E73",
"`&	c #747276",
" *	c #737276",
".*	c #6F7074",
"+*	c #747579",
"@*	c #757579",
"#*	c #777877",
"$*	c #7B7B77",
"%*	c #7A7572",
"&*	c #7D7673",
"**	c #81726C",
"=*	c #7F6D68",
"-*	c #836C67",
";*	c #846F6A",
">*	c #846B69",
",*	c #836A69",
"'*	c #7F696B",
")*	c #7F6B6D",
"!*	c #7E6D71",
"~*	c #707275",
"                                                                                                    ",
"                                                                                                    ",
"                                              . + @                                                 ",
"                                            # $ % & *                                               ",
"                                          = - ; > , ' )                                             ",
"                                          ! ~ { ] ^ / (                                             ",
"                                        _ : < [ } | 1 2 3                                           ",
"                                        4 5 6 7 8 9 0 a b c                                         ",
"                                      d e f g h i j k l m n                                         ",
"                                    o p q r s t u v w x y z A                                       ",
"                                    B C D E F G H I J K L M N                                       ",
"                                  O P Q R S T U V W X Y Z `  ...                                    ",
"                                  +.@.#.$.%.&.*.=.-.;.>.,.'.).!.~.                                  ",
"                                {.].^./.(._.:.<.[.<.}.|.1.2.3.4.5.                                  ",
"                                6.7.8.9.0.a.b.c.c.c.d.e.f.g.h.i.j.k.                                ",
"                              l.m.n.o.p.q.r.s.t.u.v.w.x.y.z.A.B.C.D.                                ",
"                            E.F.G.H.I.J.K.L.M.N.O.P.Q.c.R.S.%.T.U.V.W.                              ",
"                            X.Y.Z.`. +.+++@+#+$+%+&+*+=+-+;+>+,+'+)+!+                              ",
"                          ~+{+]+^+/+(+_+[.:+<+[+}+|+1+2+3+4+5+6+7+8+9+0+                            ",
"                          a+b+c+} d+e+f+[.V g+h+i+j+k+l+V L.m+n+o+p+q+r+                            ",
"                        s+t+u+v+I.w+x+[.=.V y+z+A+B+C+D+=.E+F+G+H+2.I+J+K+                          ",
"                        L+M+N+O+P+Q+d.[.=.R+S+T+U+V+W+X+=.[.Y+Z+`+ @.@+@@@#@                        ",
"                      $@%@&@*@=@-@[.=.=.=.[.;@>@,@'@)@[.=.=.=.!@~@{@f.]@^@/@                        ",
"                    (@_@:@<@[@}@|@E+=.=.=.[.1@2@3@4@5@[.=.=.=.[.6@7@8@9@0@a@b@                      ",
"                    c@d@e@f@g@h@i@j@=.=.=.[.k@l@m@n@o@E+=.=.=.E+p@q@I.>+r@s@t@                      ",
"                  u@v@w@x@[@y@z@A@[.=.=.=.[.B@C@D@E@F@E+=.=.=.f+G@H@I@/+J@K@L@M@                    ",
"                  N@O@P@Q@R@S@[.[.T@=.=.=.[.U@V@n@W@X@[.=.=.=.Y@[.f+Z@`@ #.#+#@###                  ",
"                $#%#&#*#=#-#;#>#=.=.=.=.=.[.,#'#)#!#~#[.=.=.=.=.=.[.{#]#^#f./#(#_#                  ",
"              :#<#[#}#|#1#2#i@Y@=.=.=.=.=.[.3#4#5#6#7#[.=.=.=.=.=.[.8#9#0#a#b#c#d#e#                ",
"              f#g#h#7+i#j#k#-.[.=.=.=.=.=.[.l#m#n#o#R+[.=.=.=.=.=.E+A@p#q#r#s#t#u#v#                ",
"            w#x#y#0#z#A#B#[.[.>#=.=.=.=.=.C#R+D#E#F#G#*.=.=.=.=.=.H#[.f+I#J#K#L#M#N#O#              ",
"            P#Q#R#S#T#U#L.[.=.=.=.=.=.=.=.[.V#W#X#Y#@+C#=.=.=.=.=.=.=.[.;#Z#p.`# $7#.$              ",
"          +$@$#$$$f.%$@+f+>#=.=.=.=.=.=.=.E+&$*$=$-$;$E+=.=.=.=.=.=.=.[.d.>$,$'$)$!$~${$            ",
"        ]$^$/$d+($_$:$=.=.=.=.=.=.=.=.=.=.[.<$[$}$|$1$V =.=.=.=.=.=.=.[.2$*.3$4$5$6$7$8$            ",
"        9$0$a$d+b$c$d$=.=.=.=.=.=.=.=.=.=.*.e$f$g$h$i$:+=.=.=.=.=.=.=.H#<.f+j$k$l$m$n$o$p$          ",
"      q$r$s$t$t$u$v$L.=.=.=.=.=.=.=.=.=.=.s.w$x$y$z$A$V =.=.=.=.=.=.=.=.=.=.Y+B$C$D$E$F$G$H$        ",
"      I$J$K$L$M$N$O$P$@+@+@+@+i@i@f+f+k#k#L.3+A@i@Q$i@L.R$R$<.<.E+E+<.<.k#k#S$T$U$V$W$X$Y$Z$        ",
"    `$ %.%+%@%#%$%%%&%*%&%=%-%;%>%,%'%)%!%~%{%]%^%/%(%_%:%<%[%}%|%1%&%&%2%3%4%5%6%7%8%9%0%a%b%      ",
"    c%d%e%f%g%h%i%h%j%Y k%l%h%m%n%n%o%p%q%n%r%s%t%u%v%w%x%y%t%z%A%B%p%C%r%D%E%B%F%G%H%I%J%K%L%      ",
"    M%N%O%P%Q%R%S%T%U%V%W%X%Y%Z%`% &8 .&+&@&*##&$&%&&&*&=&-&;&>&,&'&)&!&'&~&~&{&]&]&^&/&(&Q$_&      ",
"    f#:&<&[&}&|&1&2&3&4&5&6&7&8&9&0&a&b&c&d&e&f&g&h&i&j&k&l&m&n&o&p&q&r&s&t&u&v&w&x&y&z&A&B&C&      ",
"      D&E&F&G&H&I&J&K&L&L&M&N&O&P&Q&R&S&T&U&V&W&X&Y&Z&`& *.*+*@*#*$*%*&***=*-*;*>*,*'*)*!*~*        ",
"                                                                                                    ",
"                                                                                                    ",
"                                                                                                    "};
